#!OML:ASF E:\CV Data\Top Level 1\Subject 1\Session 1\player.ASF
:FULLY-SPECIFIED
:DEGREES
521
root -2.01835 16.3099 46.9502 -179.201 26.6734 -177.595
lowerback 3.52049 -1.91626 2.2544
upperback -3.14505 -2.46343 -1.87144
thorax -5.41783 -1.32329 -3.00701
lowerneck -21.6125 -0.246969 -13.2883
upperneck 7.92944 3.49257 1.10599
head 5.63007 1.46487 2.82208
rclavicle -5.85421e-014 -1.74931e-014
rhumerus -12.1547 30.7234 -84.3967
rradius 133.882
rwrist 19.4593
rhand -48.9067 40.8351
rfingers 7.12502
rthumb -21.5394 12.0128
lclavicle -5.85421e-014 -1.74931e-014
lhumerus -10.8802 -44.2667 101.78
lradius 116.612
lwrist 33.7201
lhand -38.1056 24.4419
lfingers 7.12502
lthumb -11.1411 54.1261
rfemur -16.9977 -3.79327 17.7563
rtibia 47.0377
rfoot -24.2962 -23.2902
rtoes 1.84019
lfemur -3.12963 5.12807 -2.08945
ltibia 45.386
lfoot -3.95121 1.6687
ltoes -58.2941
522
root -2.1052 16.2627 46.9928 -179.213 25.9067 -177.47
lowerback 3.76699 -2.05866 2.56195
upperback -2.97112 -2.62872 -1.54628
thorax -5.38642 -1.41295 -2.82056
lowerneck -21.3016 0.0434752 -13.1651
upperneck 8.09404 3.87567 0.622196
head 5.62347 1.61099 2.68312
rclavicle -3.57315e-014 -3.02153e-014
rhumerus -12.6011 30.6592 -84.0078
rradius 133.542
rwrist 19.1585
rhand -49.4898 40.5108
rfingers 7.12502
rthumb -22.0993 11.7536
lclavicle -3.57315e-014 -3.02153e-014
lhumerus -11.5846 -44.6635 102.085
lradius 116.52
lwrist 33.2122
lhand -39.1019 25.0542
lfingers 7.12502
lthumb -12.1019 54.6842
rfemur -17.523 -4.60255 17.6012
rtibia 47.8444
rfoot -24.4032 -23.1629
rtoes 1.38593
lfemur -2.51932 5.09483 -2.29614
ltibia 44.1368
lfoot -4.7419 4.10397
ltoes -59.1105
523
root -2.1935 16.2206 47.033 -179.172 25.1191 -177.286
lowerback 3.98676 -2.20345 2.97459
upperback -2.8073 -2.78728 -1.22979
thorax -5.35597 -1.50197 -2.70299
lowerneck -20.9741 0.310235 -13.0172
upperneck 8.22614 4.21825 0.149565
head 5.60891 1.7419 2.5394
rclavicle -5.06901e-015 -4.77083e-015
rhumerus -12.9669 30.6775 -83.6283
rradius 133.3
rwrist 18.9422
rhand -49.8228 40.0851
rfingers 7.12502
rthumb -22.419 11.3662
lclavicle -5.06901e-015 -4.77083e-015
lhumerus -12.3283 -45.0314 102.398
lradius 116.45
lwrist 32.6627
lhand -39.8487 25.6344
lfingers 7.12502
lthumb -12.822 55.2206
rfemur -18.0072 -5.4497 17.4937
rtibia 48.5359
rfoot -24.4603 -23.019
rtoes 0.95148
lfemur -2.04156 5.09114 -2.43132
ltibia 42.9792
lfoot -6.57504 6.00546
ltoes -59.2098
524
root -2.28158 16.1848 47.0718 -179.11 24.2972 -177.125
lowerback 4.17587 -2.36284 3.39921
upperback -2.65943 -2.96142 -0.932759
thorax -5.32836 -1.59792 -2.61114
lowerneck -20.6683 0.557096 -12.9059
upperneck 8.36975 4.54032 -0.255041
head 5.60211 1.86695 2.42171
rclavicle -6.33626e-014 -1.07344e-014
rhumerus -13.3127 30.8353 -83.3092
rradius 133.16
rwrist 18.8463
rhand -50.1046 39.6172
rfingers 7.12502
rthumb -22.6895 10.9311
lclavicle -6.33626e-014 -1.07344e-014
lhumerus -13.1254 -45.3414 102.729
lradius 116.411
lwrist 32.0845
lhand -40.4443 26.2554
lfingers 7.12502
lthumb -13.396 55.8047
rfemur -18.4609 -6.32389 17.3638
rtibia 49.1254
rfoot -24.4767 -22.8753
rtoes 0.548805
lfemur -1.72089 5.10188 -2.57061
ltibia 41.8986
lfoot -8.972 7.11729
ltoes -58.3218
525
root -2.36785 16.1552 47.11 -179.055 23.4481 -177.066
lowerback 4.32824 -2.50676 3.74123
upperback -2.50948 -3.12033 -0.686497
thorax -5.27533 -1.6825 -2.52827
lowerneck -20.4433 0.754857 -12.7932
upperneck 8.55076 4.80541 -0.609741
head 5.62353 1.96582 2.31619
rclavicle 2.24378e-014 9.14409e-015
rhumerus -13.6668 31.0521 -83.0798
rradius 133.142
rwrist 18.7107
rhand -50.2405 39.3443
rfingers 7.12502
rthumb -22.8199 10.6742
lclavicle 2.24378e-014 9.14409e-015
lhumerus -13.9476 -45.6964 103.078
lradius 116.399
lwrist 31.5063
lhand -40.8577 26.9416
lfingers 7.12502
lthumb -13.7945 56.4642
rfemur -18.9027 -7.19753 17.1406
rtibia 49.6385
rfoot -24.4658 -22.7449
rtoes 0.199859
lfemur -1.5664 5.1333 -2.79516
ltibia 40.8874
lfoot -11.3224 7.71051
ltoes -56.8861
